# xmcd CD database file
#
# Track frame offsets:
#	150
#	2964
#	28981
#	62159
#	80702
#	106688
#	132475
#	155928
#	159960
#	181537
#	205981
#	229877
#	249842
#	276978
#	295852
#	319265
#
# Disc length: 4833 seconds
#
# Revision: 6
# Processed by: cddbd v1.5.2PL0 Copyright (c) Steve Scherf et al.
# Submitted via: CDex 2.09
#
DISCID=e312df10
DTITLE=Schiller - Morgenstund (Limited Ultra Deluxe Edition) Disc 1
DYEAR=2019
DGENRE=New Age
TTITLE0=Willkommen
TTITLE1=Harmonia
TTITLE2=Universe (Mit Tricia McTeague)
TTITLE3=Dreamcatcher (Mit Jhyve)
TTITLE4=Baum Des Lebens
TTITLE5=Avalanche (Mit Schwarz)
TTITLE6=Das Goldene Tor (Mit Valda Abbasi)
TTITLE7=Berlin Tehran (Miniatur)
TTITLE8=In Between (Mit Jan Blomqvist)
TTITLE9=Morgenstund (Mit Nena)
TTITLE10=Shangri La
TTITLE11=Lichtjahre (Mit Giorgio Moroder)
TTITLE12=New Day (Mit Schwarz)
TTITLE13=Over You
TTITLE14=Morgenstern (Ausschnitt) (Mit Tangerine Dream)
TTITLE15=Love (Mit Rebecca Ferguson)
EXTD=Release-Date: 22.03.2019\n\nMARO\n YEAR: 2019
EXTT0=
EXTT1=
EXTT2=
EXTT3=
EXTT4=
EXTT5=
EXTT6=
EXTT7=
EXTT8=
EXTT9=
EXTT10=
EXTT11=
EXTT12=
EXTT13=
EXTT14=
EXTT15=
PLAYORDER=
